<svg xmlns="http://www.w3.org/2000/svg" xmlns:xlink="http://www.w3.org/1999/xlink" width="500" zoomAndPan="magnify" viewBox="0 0 375 374.999991" height="500" preserveAspectRatio="xMidYMid meet" version="1.0"><defs><clipPath id="1776885dd8"><path d="M 134 75 L 240 75 L 240 302.390625 L 134 302.390625 Z M 134 75 " clip-rule="nonzero"/></clipPath><clipPath id="4079bbe607"><path d="M 171.007812 187.5 L 204 187.5 L 204 204 L 171.007812 204 Z M 171.007812 187.5 " clip-rule="nonzero"/></clipPath></defs><path fill="#5a9ff6" d="M 110.078125 246.390625 L 98.773438 235.835938 L 40.734375 181.503906 L 98.773438 127.199219 L 110.078125 116.648438 C 116.730469 110.421875 117.089844 99.933594 110.863281 93.28125 C 104.636719 86.628906 94.152344 86.269531 87.5 92.496094 L 5.242188 169.441406 C 1.902344 172.554688 0 176.949219 0 181.503906 C 0 186.089844 1.902344 190.449219 5.242188 193.5625 L 87.5 270.507812 C 90.675781 273.492188 94.742188 274.964844 98.773438 274.964844 C 103.195312 274.964844 107.585938 273.195312 110.832031 269.722656 C 117.089844 263.070312 116.730469 252.617188 110.078125 246.390625 Z M 110.078125 246.390625 " fill-opacity="1" fill-rule="nonzero"/><path fill="#5a9ff6" d="M 369.757812 169.441406 L 287.5 92.496094 C 280.847656 86.238281 270.363281 86.597656 264.136719 93.25 C 257.910156 99.902344 258.238281 110.390625 264.921875 116.617188 L 276.226562 127.167969 L 306.050781 155.089844 L 334.265625 181.503906 L 276.195312 235.804688 L 264.890625 246.355469 C 258.238281 252.582031 257.875 263.070312 264.101562 269.722656 C 267.347656 273.195312 271.769531 274.964844 276.164062 274.964844 C 280.191406 274.964844 284.257812 273.492188 287.46875 270.507812 L 369.722656 193.5625 C 373.066406 190.449219 374.96875 186.058594 374.96875 181.503906 C 375 176.914062 373.097656 172.554688 369.757812 169.441406 Z M 369.757812 169.441406 " fill-opacity="1" fill-rule="nonzero"/><g clip-path="url(#1776885dd8)"><path fill="#5a9ff6" d="M 228.578125 76.144531 C 220.023438 72.964844 210.488281 77.324219 207.308594 85.875 L 135.214844 279.71875 C 132.035156 288.269531 136.394531 297.808594 144.945312 300.988281 C 146.847656 301.707031 148.78125 302.035156 150.714844 302.035156 C 157.433594 302.035156 163.722656 297.90625 166.214844 291.253906 L 238.3125 97.378906 C 241.492188 88.824219 237.164062 79.324219 228.578125 76.144531 Z M 228.578125 76.144531 " fill-opacity="1" fill-rule="nonzero"/></g><g clip-path="url(#4079bbe607)"><path fill="#5a9ff6" d="M 203.984375 187.5 C 203.984375 189.664062 203.558594 191.808594 202.730469 193.808594 C 201.902344 195.808594 200.6875 197.628906 199.15625 199.160156 C 197.625 200.691406 195.808594 201.90625 193.808594 202.734375 C 191.804688 203.5625 189.660156 203.988281 187.496094 203.988281 C 185.332031 203.988281 183.1875 203.5625 181.1875 202.734375 C 179.1875 201.90625 177.367188 200.691406 175.839844 199.160156 C 174.308594 197.628906 173.09375 195.808594 172.265625 193.808594 C 171.433594 191.808594 171.007812 189.664062 171.007812 187.5 Z M 203.984375 187.5 " fill-opacity="1" fill-rule="nonzero"/></g></svg>